name C:\Users\Nicos\Desktop\Gil_twoSteps\Study2\ExperimentalData\IK_Splined\twoSteps_IK_BSplines_140_meshInts_study2_p02_s_01_lowIK_modROI.mot
datacolumns 38
datarows 5
range 0.32800000 0.33111429
endheader
                time	         pelvis_tilt	         pelvis_list	     pelvis_rotation	           pelvis_tx	           pelvis_ty	           pelvis_tz	       hip_flexion_r	     hip_adduction_r	      hip_rotation_r	        knee_angle_r	       ankle_angle_r	    subtalar_angle_r	         mtp_angle_r	       hip_flexion_l	     hip_adduction_l	      hip_rotation_l	        knee_angle_l	       ankle_angle_l	    subtalar_angle_l	         mtp_angle_l	    lumbar_extension	      lumbar_bending	     lumbar_rotation	          arm_flex_r	           arm_add_r	           arm_rot_r	        elbow_flex_r	           pro_sup_r	        wrist_flex_r	         wrist_dev_r	          arm_flex_l	           arm_add_l	           arm_rot_l	        elbow_flex_l	           pro_sup_l	        wrist_flex_l	         wrist_dev_l	
          0.32800000	        -23.90389712	         -6.37963135	          9.46834474	         -1.36070115	          0.83286981	          0.29608186	         79.49256514	         -5.90602938	         -3.03781451	        -86.15087756	          5.84690839	        -23.61754926	          0.17955741	         -5.33258378	         -4.90238606	         10.00174302	        -37.52703135	        -33.62366510	          6.83691913	          6.80696558	        -21.33260937	         17.03314533	         -0.33215371	        -65.85610730	          7.89183841	        -31.53978020	         65.10528833	         72.01336638	         -3.60720131	          8.11917038	         31.24146809	         -6.62778131	         22.79774061	        139.51118259	         49.04987484	         -6.15723296	          5.23703856	
          0.32848287	        -23.83636612	         -6.29992135	          9.42298460	         -1.35829232	          0.83319736	          0.29609533	         79.14439401	         -5.89846388	         -2.99928358	        -85.96552064	          5.78429082	        -23.55481297	          0.23202647	         -5.22568883	         -4.79173451	          9.80763683	        -37.88042789	        -33.63397241	          7.04856880	          6.92586690	        -21.46265415	         16.97200927	         -0.39287119	        -65.57368525	          7.69760026	        -31.44211529	         65.19904830	         72.00519305	         -3.59343253	          8.13800877	         30.71936347	         -6.72493938	         22.54649186	        139.25438218	         49.05050962	         -6.21180203	          5.26759961	
          0.33000856	        -23.62299574	         -6.04807031	          9.27966508	         -1.35068142	          0.83423228	          0.29613791	         78.04431539	         -5.87456000	         -2.87754157	        -85.37986845	          5.58644486	        -23.35659192	          0.39780727	         -4.88794440	         -4.44212080	          9.19434050	        -38.99701671	        -33.66653932	          7.71729536	          7.30154653	        -21.87354258	         16.77884430	         -0.58471365	        -64.68134687	          7.08388702	        -31.13353405	         65.49529153	         71.97936869	         -3.54992882	          8.19753039	         29.06972601	         -7.03191920	         21.75264834	        138.44299769	         49.05251525	         -6.38421800	          5.36416007	
          0.33111429	        -23.46845783	         -5.87106810	          9.17804639	         -1.34516605	          0.83497282	          0.29617615	         77.23999489	         -5.85889267	         -2.79752426	        -84.94839730	          5.46920356	        -23.20456825	          0.52925136	         -4.63658068	         -4.20093545	          8.74356477	        -39.81545359	        -33.68070249	          8.11174715	          7.55486706	        -22.16849874	         16.64147643	         -0.72644415	        -64.02975266	          6.63853172	        -30.89813341	         65.71122236	         71.96324467	         -3.51861004	          8.24041960	         27.87869420	         -7.24579112	         21.16246037	        137.82893750	         49.04538279	         -6.50852589	          5.43536194	
          0.33111429	        -23.46845783	         -5.87106810	          9.17804639	         -1.34516605	          0.83497282	          0.29617615	         77.23999489	         -5.85889267	         -2.79752426	        -84.94839730	          5.46920356	        -23.20456825	          0.52925136	         -4.63658068	         -4.20093545	          8.74356477	        -39.81545359	        -33.68070249	          8.11174715	          7.55486706	        -22.16849874	         16.64147643	         -0.72644415	        -64.02975266	          6.63853172	        -30.89813341	         65.71122236	         71.96324467	         -3.51861004	          8.24041960	         27.87869420	         -7.24579112	         21.16246037	        137.82893750	         49.04538279	         -6.50852589	          5.43536194	
